<?xml version="1.0" standalone="no"?>
<!DOCTYPE svg PUBLIC "-//W3C//DTD SVG 20010904//EN"
 "http://www.w3.org/TR/2001/REC-SVG-20010904/DTD/svg10.dtd">
<svg version="1.0" xmlns="http://www.w3.org/2000/svg"
 width="500.000000pt" height="500.000000pt" viewBox="0 0 500.000000 500.000000"
 preserveAspectRatio="xMidYMid meet">
<metadata>
Created by potrace 1.14, written by Peter Selinger 2001-2017
</metadata>
<g transform="translate(0.000000,500.000000) scale(0.100000,-0.100000)"
fill="#000000" stroke="none">
<path d="M2014 4301 c-51 -13 -101 -49 -131 -95 -15 -24 -62 -122 -103 -219
l-75 -177 -145 -56 c-255 -99 -293 -123 -336 -221 -27 -60 -27 -145 -1 -203
27 -61 53 -122 96 -224 l42 -98 -75 -172 c-84 -191 -94 -224 -89 -279 13 -117
58 -157 297 -262 l189 -83 67 -175 c92 -240 120 -282 209 -312 84 -28 145 -17
325 59 60 25 111 46 112 46 2 0 4 -93 4 -206 l0 -206 -22 16 c-81 59 -271 124
-418 142 -82 11 -378 11 -445 2 -80 -12 -130 -32 -133 -55 -7 -50 196 -294
329 -395 148 -113 262 -160 365 -152 102 9 256 80 304 141 l20 26 0 -187 c0
-225 6 -249 72 -266 36 -10 47 -9 74 5 17 9 37 28 43 41 7 16 11 96 11 216 l0
191 20 -26 c27 -34 126 -93 196 -118 150 -53 280 -17 472 128 129 99 308 309
327 386 6 23 3 28 -21 38 -75 29 -199 41 -359 36 -194 -7 -233 -12 -355 -43
-89 -23 -207 -73 -257 -110 l-23 -16 0 197 c0 183 1 197 18 192 9 -3 69 -27
132 -53 63 -26 134 -49 158 -52 63 -6 126 15 176 59 44 39 48 47 159 303 l52
119 178 67 c223 85 265 116 302 221 28 78 17 150 -41 277 -8 18 -35 78 -58
133 l-43 100 84 196 c74 171 85 203 84 253 0 94 -39 163 -121 214 -19 12 -110
53 -203 91 l-167 70 -70 178 c-39 98 -78 190 -87 205 -51 80 -137 123 -232
115 -37 -3 -315 -110 -346 -133 -20 -15 -73 -28 -81 -20 -9 9 -245 110 -324
139 -51 19 -110 23 -156 12z"/>
</g>
</svg>
